<svg width="200" height="60" viewBox="0 0 200 60" xmlns="http://www.w3.org/2000/svg">
  <defs>
    <radialGradient cx="50%" cy="50%" fx="50%" fy="50%" r="51.694%" gradientTransform="matrix(1 0 0 .93748 0 .031)" id="all_logo01_svg__a">
      <stop stop-color="#FC4" offset="0%"></stop>
      <stop stop-color="#ED5444" offset="100%"></stop>
    </radialGradient>
  </defs>
  <g fill="none" fill-rule="evenodd">
    <path fill="#111" d="M90.223 3.883v-2.62h11.616v2.62h-4.25V15.44h-3.117V3.883z"></path>
    <g fill="#111">
      <path d="M107.411 7.576c-.337-.37-.85-.555-1.538-.555-.45 0-.825.076-1.123.228a2.148 2.148 0 00-.714.566 2.09 2.09 0 00-.378.715 3.223 3.223 0 00-.129.675h4.587c-.133-.715-.367-1.257-.705-1.629m-3.187 5.401c.424.411 1.033.616 1.827.616.569 0 1.059-.142 1.47-.427.41-.284.66-.586.754-.903h2.482c-.397 1.23-1.006 2.111-1.827 2.64-.82.53-1.814.794-2.978.794-.808 0-1.536-.128-2.185-.387a4.536 4.536 0 01-1.647-1.102 4.947 4.947 0 01-1.042-1.707 6.24 6.24 0 01-.368-2.184 6 6 0 01.377-2.145 5.04 5.04 0 011.073-1.717 5.05 5.05 0 011.657-1.142c.642-.278 1.353-.417 2.135-.417.874 0 1.634.169 2.283.506a4.565 4.565 0 011.599 1.36c.416.57.718 1.219.903 1.946.185.728.251 1.49.198 2.284h-7.406c.04.913.272 1.575.695 1.985M117.508 7.02c-.45 0-.828.104-1.132.309-.305.205-.553.47-.745.794a3.419 3.419 0 00-.407 1.072 5.535 5.535 0 000 2.293c.08.385.209.732.387 1.043.179.31.42.565.725.764.304.198.675.298 1.112.298.675 0 1.195-.189 1.558-.566.364-.377.593-.884.686-1.52h2.72c-.186 1.364-.715 2.404-1.589 3.118-.873.715-1.992 1.073-3.355 1.073-.768 0-1.473-.13-2.115-.388a4.675 4.675 0 01-1.638-1.081 4.921 4.921 0 01-1.052-1.659 5.745 5.745 0 01-.378-2.115c0-.794.116-1.531.348-2.213a4.98 4.98 0 011.023-1.767c.45-.497.999-.884 1.647-1.162.65-.278 1.39-.417 2.224-.417.61 0 1.194.08 1.758.238a4.7 4.7 0 011.508.725 3.87 3.87 0 011.082 1.211c.279.484.438 1.057.477 1.718h-2.76c-.185-1.178-.88-1.767-2.084-1.767M127.061 1.263v5.34h.06c.357-.595.813-1.028 1.37-1.3.556-.27 1.098-.407 1.628-.407.754 0 1.373.102 1.856.308.483.205.864.49 1.141.853.279.365.474.808.587 1.331a8.29 8.29 0 01.168 1.737v6.314h-2.82V9.642c0-.847-.132-1.48-.396-1.897-.265-.416-.735-.625-1.41-.625-.767 0-1.324.228-1.667.685-.345.457-.517 1.208-.517 2.253v5.381h-2.82V1.263h2.82zM97.232 33.556c.45 0 .887-.072 1.31-.218.424-.145.801-.388 1.132-.725.331-.337.596-.777.795-1.32.198-.543.297-1.204.297-1.986 0-.714-.07-1.36-.208-1.936-.14-.575-.367-1.069-.685-1.479a3.032 3.032 0 00-1.26-.943c-.524-.219-1.17-.327-1.937-.327h-2.224v8.934h2.78zm.218-11.555c.914 0 1.764.145 2.552.436.787.292 1.47.729 2.045 1.31.576.583 1.026 1.31 1.35 2.185.325.873.486 1.899.486 3.077 0 1.033-.132 1.986-.397 2.86-.264.874-.664 1.627-1.201 2.263a5.628 5.628 0 01-2.005 1.499c-.8.365-1.744.546-2.83.546h-6.115V22.001h6.115zM106.07 36.177h2.82V25.912h-2.82v10.265zm.001-11.853h2.82V22h-2.82v2.323zM114.036 25.912v1.906h.04c.132-.317.31-.612.536-.884a3.48 3.48 0 01.774-.694c.292-.192.602-.34.933-.447.331-.105.675-.159 1.033-.159.185 0 .39.033.615.1v2.62a5.455 5.455 0 00-1.012-.099c-.516 0-.954.086-1.31.258a2.27 2.27 0 00-.865.705 2.812 2.812 0 00-.466 1.042c-.093.397-.14.828-.14 1.29v4.627h-2.819V25.912h2.68zM125.29 28.314c-.338-.37-.852-.555-1.54-.555-.45 0-.823.076-1.121.228a2.142 2.142 0 00-.715.566 2.087 2.087 0 00-.377.715 3.279 3.279 0 00-.13.674h4.586c-.132-.714-.366-1.257-.704-1.628m-3.187 5.401c.424.41 1.032.616 1.827.616.569 0 1.059-.142 1.47-.427.41-.285.661-.586.754-.904h2.481c-.397 1.232-1.005 2.112-1.826 2.641-.821.53-1.814.794-2.978.794-.808 0-1.536-.129-2.184-.387a4.533 4.533 0 01-1.648-1.102 4.947 4.947 0 01-1.043-1.707c-.245-.662-.367-1.39-.367-2.184 0-.768.126-1.483.377-2.145a5.037 5.037 0 011.072-1.718 5.048 5.048 0 011.658-1.14c.642-.28 1.354-.418 2.135-.418.874 0 1.635.169 2.283.506a4.558 4.558 0 011.598 1.36c.418.57.718 1.219.904 1.946.185.728.251 1.49.199 2.283h-7.407c.04.914.271 1.576.695 1.986M135.385 27.759c-.45 0-.827.103-1.131.307-.305.206-.553.47-.745.795a3.43 3.43 0 00-.407 1.072 5.586 5.586 0 000 2.293c.08.385.209.732.387 1.043.18.31.42.565.725.764.304.198.675.298 1.112.298.674 0 1.195-.189 1.558-.566.364-.378.593-.884.685-1.52h2.72c-.185 1.364-.714 2.404-1.588 3.118-.873.715-1.992 1.073-3.355 1.073-.769 0-1.473-.13-2.115-.388a4.663 4.663 0 01-1.638-1.082 4.911 4.911 0 01-1.052-1.658 5.742 5.742 0 01-.377-2.115c0-.794.115-1.531.347-2.213.231-.682.572-1.27 1.023-1.767.45-.497.999-.884 1.648-1.162.648-.278 1.39-.417 2.223-.417.61 0 1.195.08 1.757.238a4.71 4.71 0 011.51.725c.443.324.804.728 1.082 1.211.277.484.436 1.056.476 1.718h-2.76c-.185-1.179-.88-1.767-2.085-1.767M147.517 25.912v1.886h-2.066v5.083c0 .477.08.795.24.953.158.16.475.238.952.238.159 0 .311-.006.457-.019.146-.014.284-.033.417-.06v2.184c-.238.04-.504.067-.794.08-.292.013-.576.02-.854.02-.437 0-.85-.03-1.241-.09a2.917 2.917 0 01-1.033-.348 1.836 1.836 0 01-.705-.734c-.172-.317-.257-.735-.257-1.25v-6.057h-1.708v-1.886h1.708v-3.078h2.818v3.078h2.066zM151.488 32.256c.079.39.215.741.406 1.052.192.312.448.56.765.745.318.185.715.278 1.191.278.477 0 .877-.093 1.202-.278.323-.186.582-.433.774-.745.192-.31.327-.662.407-1.052a6.126 6.126 0 000-2.412 3.096 3.096 0 00-.407-1.053 2.266 2.266 0 00-.774-.745c-.325-.192-.725-.287-1.202-.287-.476 0-.873.095-1.191.287-.317.192-.573.44-.765.745a3.095 3.095 0 00-.406 1.053 6.18 6.18 0 000 2.412m-2.562-3.435a4.81 4.81 0 011.072-1.708 4.812 4.812 0 011.668-1.092c.648-.258 1.377-.387 2.184-.387.807 0 1.54.129 2.194.387a4.784 4.784 0 011.678 1.092c.464.47.821 1.04 1.072 1.708.251.669.378 1.413.378 2.233 0 .821-.127 1.562-.378 2.224a4.81 4.81 0 01-1.072 1.698c-.463.47-1.022.83-1.678 1.082-.655.251-1.387.378-2.194.378-.807 0-1.536-.127-2.184-.378a4.68 4.68 0 01-1.668-1.082 4.822 4.822 0 01-1.072-1.698c-.251-.662-.377-1.403-.377-2.224 0-.82.126-1.564.377-2.233M163.437 25.912v1.906h.04c.131-.317.31-.612.536-.884a3.5 3.5 0 01.775-.694 3.79 3.79 0 01.933-.447c.33-.105.677-.205.906-.265.16-.041.536-.099.742-.12v2.946a5.497 5.497 0 00-1.013-.099c-.516 0-.953.086-1.31.258a2.268 2.268 0 00-.864.705 2.824 2.824 0 00-.467 1.042 5.707 5.707 0 00-.139 1.29v4.627h-2.82V25.912h2.681zM170.855 21.644v2.274c.01.327-.038.634-.141.92-.104.289-.25.541-.439.76a2.421 2.421 0 01-1.53.816v-1.262a.942.942 0 00.489-.487c.095-.194.091-.423.091-.733h-.58v-2.288h2.11zM172.994 33.602c.125.218.287.397.486.536.198.138.427.242.685.307.258.067.526.1.804.1.198 0 .407-.023.625-.07.219-.046.418-.119.596-.218.178-.1.327-.232.447-.397.118-.166.178-.374.178-.626 0-.423-.28-.741-.843-.953-.563-.211-1.347-.423-2.353-.635-.41-.093-.811-.202-1.202-.328a4.057 4.057 0 01-1.041-.496 2.398 2.398 0 01-.736-.774c-.185-.311-.277-.692-.277-1.142 0-.662.128-1.204.387-1.628a2.856 2.856 0 011.023-1.003 4.49 4.49 0 011.43-.516 8.747 8.747 0 011.627-.149c.556 0 1.095.053 1.619.158.522.107.99.285 1.4.536.41.252.75.587 1.022 1.003.27.418.433.943.487 1.579h-2.682c-.04-.543-.244-.91-.615-1.102-.37-.192-.807-.288-1.31-.288-.159 0-.332.01-.516.03a1.75 1.75 0 00-.507.129 1.037 1.037 0 00-.387.288c-.106.126-.159.294-.159.506 0 .252.093.457.278.616.185.159.427.288.725.387.298.1.638.188 1.022.267.384.08.774.167 1.171.259.41.093.811.206 1.202.338.39.132.737.307 1.042.526.305.219.55.49.736.813.184.326.277.726.277 1.202 0 .675-.136 1.24-.407 1.698a3.254 3.254 0 01-1.063 1.102 4.348 4.348 0 01-1.499.586 8.756 8.756 0 01-3.464-.01 4.6 4.6 0 01-1.519-.596 3.404 3.404 0 01-1.092-1.102c-.285-.457-.44-1.03-.467-1.718h2.68c0 .305.064.567.19.785M98.582 51.435l-1.787-5.202h-.04l-1.846 5.202h3.673zm-.179-8.696l5.302 14.176h-3.236l-1.073-3.157h-5.3l-1.113 3.157h-3.137l5.36-14.176h3.197zM107.01 54.364c.126.218.289.397.487.536.199.138.427.241.685.308.258.066.526.099.804.099.198 0 .408-.023.626-.07a2.12 2.12 0 00.595-.218c.179-.1.328-.232.447-.397.119-.166.179-.374.179-.626 0-.423-.282-.741-.844-.952-.563-.212-1.347-.424-2.353-.636-.41-.093-.81-.202-1.201-.328a4.11 4.11 0 01-1.043-.496 2.41 2.41 0 01-.734-.774c-.186-.311-.278-.692-.278-1.142 0-.662.129-1.204.387-1.629a2.86 2.86 0 011.022-1.002c.424-.245.9-.417 1.43-.516a8.808 8.808 0 011.629-.149c.555 0 1.095.053 1.618.159.522.106.989.284 1.4.536.41.251.75.585 1.022 1.002.271.418.433.944.486 1.579h-2.68c-.04-.543-.245-.91-.615-1.102-.37-.192-.808-.288-1.311-.288-.159 0-.331.01-.516.03-.186.02-.355.063-.507.129a1.052 1.052 0 00-.387.288c-.106.126-.159.295-.159.506 0 .252.093.457.278.616.186.159.427.288.725.387.298.1.638.189 1.023.268.383.08.774.165 1.17.258.41.093.812.206 1.202.338.39.132.738.307 1.043.526.304.218.549.49.734.814.186.325.278.725.278 1.201 0 .675-.135 1.241-.407 1.698a3.259 3.259 0 01-1.062 1.101 4.34 4.34 0 01-1.5.587 8.758 8.758 0 01-3.463-.01 4.62 4.62 0 01-1.52-.596 3.409 3.409 0 01-1.092-1.102c-.285-.457-.44-1.029-.466-1.718h2.68c0 .305.063.566.189.785M117.673 54.364c.125.218.288.397.486.536.199.138.427.241.685.308.259.066.526.099.805.099.198 0 .407-.023.625-.07a2.12 2.12 0 00.595-.218c.179-.1.328-.232.447-.397.119-.166.179-.374.179-.626 0-.423-.282-.741-.844-.952-.563-.212-1.347-.424-2.353-.636-.41-.093-.81-.202-1.201-.328a4.11 4.11 0 01-1.043-.496 2.419 2.419 0 01-.734-.774c-.185-.311-.278-.692-.278-1.142 0-.662.129-1.204.387-1.629a2.86 2.86 0 011.022-1.002c.424-.245.9-.417 1.43-.516a8.808 8.808 0 011.629-.149c.555 0 1.095.053 1.618.159.523.106.989.284 1.4.536.41.251.75.585 1.022 1.002.271.418.433.944.486 1.579h-2.68c-.04-.543-.245-.91-.615-1.102-.37-.192-.808-.288-1.311-.288-.158 0-.331.01-.516.03-.186.02-.355.063-.506.129a1.052 1.052 0 00-.387.288c-.107.126-.16.295-.16.506 0 .252.093.457.278.616.186.159.428.288.725.387.298.1.639.189 1.023.268.383.08.774.165 1.172.258.409.093.81.206 1.2.338.39.132.738.307 1.043.526.304.218.549.49.734.814.186.325.278.725.278 1.201 0 .675-.135 1.241-.406 1.698a3.259 3.259 0 01-1.063 1.101 4.34 4.34 0 01-1.5.587 8.758 8.758 0 01-3.463-.01 4.62 4.62 0 01-1.52-.596 3.409 3.409 0 01-1.092-1.102c-.285-.457-.44-1.029-.466-1.718h2.68c0 .305.063.566.189.785M128.463 52.994c.079.39.215.741.406 1.052.192.311.448.56.765.745.318.185.715.277 1.191.277.476 0 .876-.092 1.202-.277.323-.186.582-.434.774-.745.192-.31.327-.662.407-1.052a6.14 6.14 0 000-2.413 3.098 3.098 0 00-.407-1.052 2.266 2.266 0 00-.774-.745c-.326-.191-.726-.287-1.202-.287s-.873.096-1.191.287c-.317.192-.573.44-.765.745a3.097 3.097 0 00-.406 1.052 6.14 6.14 0 000 2.413m-2.562-3.435a4.797 4.797 0 011.072-1.708 4.795 4.795 0 011.668-1.092c.648-.258 1.376-.387 2.184-.387.807 0 1.539.129 2.194.387a4.78 4.78 0 011.678 1.092c.463.47.821 1.04 1.072 1.708.251.668.378 1.412.378 2.234 0 .82-.127 1.561-.378 2.223a4.81 4.81 0 01-1.072 1.698 4.66 4.66 0 01-1.678 1.082c-.655.25-1.387.378-2.194.378-.808 0-1.536-.127-2.184-.378a4.673 4.673 0 01-1.668-1.082 4.812 4.812 0 01-1.072-1.698c-.251-.662-.377-1.403-.377-2.223 0-.822.126-1.566.377-2.234M142.636 48.496c-.45 0-.828.103-1.132.308-.305.205-.553.47-.745.794a3.443 3.443 0 00-.407 1.072 5.593 5.593 0 000 2.294c.08.384.209.731.387 1.042.179.312.42.566.726.765.303.199.674.298 1.111.298.675 0 1.195-.189 1.558-.566.364-.377.593-.884.686-1.519h2.72c-.186 1.363-.715 2.402-1.588 3.117-.874.715-1.993 1.072-3.356 1.072a5.615 5.615 0 01-2.115-.387 4.686 4.686 0 01-1.637-1.082 4.914 4.914 0 01-1.053-1.658 5.741 5.741 0 01-.378-2.115c0-.794.116-1.531.349-2.213a4.965 4.965 0 011.022-1.768c.45-.496 1-.883 1.648-1.162.648-.277 1.39-.416 2.223-.416.61 0 1.194.08 1.758.238.562.159 1.065.4 1.51.725.442.324.803.727 1.081 1.21.278.484.437 1.057.476 1.719h-2.76c-.185-1.179-.88-1.768-2.084-1.768M149.208 56.915h2.82V46.65h-2.82v10.265zm0-11.854h2.819v-2.323h-2.82v2.323zM160.886 51.892a1.262 1.262 0 01-.447.248c-.179.06-.37.11-.576.149a9.02 9.02 0 01-.645.1c-.225.026-.45.059-.675.098-.212.04-.42.093-.625.16a1.856 1.856 0 00-.537.267 1.27 1.27 0 00-.367.427c-.092.172-.14.391-.14.655 0 .252.048.464.14.636.092.172.218.307.377.407.16.1.344.169.556.209.212.039.43.059.656.059.555 0 .985-.092 1.29-.278a1.87 1.87 0 00.675-.665c.146-.259.236-.52.269-.785.032-.264.049-.476.049-.635v-1.052zm-6.513-2.085c.04-.662.205-1.212.497-1.648.29-.437.662-.787 1.112-1.052a4.85 4.85 0 011.519-.566 8.655 8.655 0 011.697-.169c.516 0 1.04.036 1.569.109a4.815 4.815 0 011.45.427c.436.212.793.506 1.071.884.279.377.418.877.418 1.499v5.341c0 .463.026.906.079 1.33.053.424.145.741.278.953h-2.86a4.3 4.3 0 01-.199-.992c-.449.463-.979.787-1.588.972a6.387 6.387 0 01-1.866.278c-.49 0-.946-.059-1.37-.178a3.131 3.131 0 01-1.112-.557 2.577 2.577 0 01-.744-.953c-.18-.383-.269-.84-.269-1.37 0-.582.102-1.061.308-1.44.205-.376.47-.678.794-.903a3.585 3.585 0 011.112-.506c.417-.112.837-.202 1.261-.268.424-.065.84-.12 1.251-.159.41-.04.774-.1 1.092-.178.318-.08.57-.195.755-.348.185-.151.271-.374.258-.665 0-.304-.05-.546-.15-.725-.099-.179-.231-.318-.396-.417a1.554 1.554 0 00-.576-.198 4.71 4.71 0 00-.705-.05c-.556 0-.993.12-1.31.357-.318.239-.504.636-.556 1.192h-2.82zM171.528 46.65v1.886h-2.065v5.083c0 .477.08.794.238.953.16.158.477.238.954.238a4.9 4.9 0 00.456-.02c.146-.013.285-.032.417-.06v2.185a6.83 6.83 0 01-.794.08c-.292.012-.576.02-.853.02-.437 0-.852-.03-1.242-.09a2.907 2.907 0 01-1.033-.348 1.84 1.84 0 01-.705-.734c-.172-.318-.257-.735-.257-1.25v-6.057h-1.708V46.65h1.708v-3.078h2.82v3.078h2.064zM173.199 56.915h2.82V46.65h-2.82v10.265zm0-11.854h2.82v-2.323h-2.82v2.323zM180.501 52.994c.08.39.215.741.407 1.052.192.311.447.56.764.745.318.185.715.277 1.192.277.476 0 .877-.092 1.2-.277a2.15 2.15 0 00.775-.745c.192-.31.328-.662.407-1.052a6.195 6.195 0 000-2.413 3.098 3.098 0 00-.407-1.052 2.262 2.262 0 00-.775-.745c-.323-.191-.724-.287-1.2-.287-.477 0-.874.096-1.192.287-.317.192-.572.44-.764.745a3.097 3.097 0 00-.407 1.052 6.14 6.14 0 000 2.413m-2.562-3.435a4.797 4.797 0 011.073-1.708 4.795 4.795 0 011.667-1.092c.649-.258 1.377-.387 2.185-.387.807 0 1.539.129 2.193.387a4.787 4.787 0 011.679 1.092c.463.47.82 1.04 1.072 1.708.25.668.377 1.412.377 2.234 0 .82-.126 1.561-.377 2.223a4.81 4.81 0 01-1.072 1.698c-.464.47-1.023.83-1.679 1.082-.654.25-1.386.378-2.193.378-.808 0-1.536-.127-2.185-.378a4.673 4.673 0 01-1.667-1.082 4.812 4.812 0 01-1.073-1.698c-.25-.662-.377-1.403-.377-2.223 0-.822.126-1.566.377-2.234M192.209 46.65v1.43h.06c.357-.596.82-1.03 1.39-1.301a4.028 4.028 0 011.746-.407c.755 0 1.374.102 1.857.308.483.205.864.49 1.142.853.277.364.473.808.586 1.33.111.524.168 1.103.168 1.738v6.314h-2.82v-5.798c0-.847-.132-1.48-.397-1.896-.265-.416-.734-.625-1.41-.625-.767 0-1.323.228-1.667.685-.344.457-.517 1.208-.517 2.254v5.38h-2.819V46.65h2.68z"></path>
    </g>
    <path d="M48.486 0a6.25 6.25 0 00-5.126 2.73L29.23 23.456a6.254 6.254 0 0010.335 7.046l14.13-20.723a6.254 6.254 0 00-1.644-8.69A6.226 6.226 0 0048.575 0h-.089zM2.292 22.14A6.241 6.241 0 000 26.932v.102a6.229 6.229 0 001.415 3.906l20.638 25.204a6.241 6.241 0 004.793 2.292h.1a6.254 6.254 0 004.785-10.216L11.093 23.016a6.243 6.243 0 00-4.843-2.292 6.228 6.228 0 00-3.958 1.416z" fill="url(#all_logo01_svg__a)"></path>
    <path d="M68.794 26.978a6.254 6.254 0 11-12.508 0 6.254 6.254 0 0112.508 0M26.58 6.34a6.254 6.254 0 11-12.509 0 6.254 6.254 0 0112.508 0" fill="#111"></path>
  </g>
</svg>